<mxfile host="app.diagrams.net" modified="2024-04-24T08:04:41.342Z" agent="Mozilla/5.0 (Windows NT 10.0; Win64; x64) AppleWebKit/537.36 (KHTML, like Gecko) Chrome/124.0.0.0 Safari/537.36" etag="8zgf7KOhcm28pIgvnL0l" version="21.5.0" type="device">
  <diagram name="Page-1" id="eXd33N1NWJG5eKfgyNZ9">
    <mxGraphModel dx="880" dy="476" grid="1" gridSize="10" guides="1" tooltips="1" connect="1" arrows="1" fold="1" page="1" pageScale="1" pageWidth="850" pageHeight="1100" math="0" shadow="0">
      <root>
        <mxCell id="0" />
        <mxCell id="1" parent="0" />
        <mxCell id="ZFc9SNvx3nLqx0V8u1el-4" style="edgeStyle=orthogonalEdgeStyle;rounded=0;orthogonalLoop=1;jettySize=auto;html=1;exitX=0.5;exitY=1;exitDx=0;exitDy=0;" edge="1" parent="1">
          <mxGeometry relative="1" as="geometry">
            <mxPoint x="480" y="140" as="sourcePoint" />
            <mxPoint x="480" y="140" as="targetPoint" />
          </mxGeometry>
        </mxCell>
        <mxCell id="ZFc9SNvx3nLqx0V8u1el-7" value="" style="shape=umlLifeline;perimeter=lifelinePerimeter;whiteSpace=wrap;html=1;container=1;dropTarget=0;collapsible=0;recursiveResize=0;outlineConnect=0;portConstraint=eastwest;newEdgeStyle={&quot;edgeStyle&quot;:&quot;elbowEdgeStyle&quot;,&quot;elbow&quot;:&quot;vertical&quot;,&quot;curved&quot;:0,&quot;rounded&quot;:0};participant=umlActor;" vertex="1" parent="1">
          <mxGeometry x="110" y="80" width="20" height="480" as="geometry" />
        </mxCell>
        <mxCell id="ZFc9SNvx3nLqx0V8u1el-14" value="" style="html=1;points=[];perimeter=orthogonalPerimeter;outlineConnect=0;targetShapes=umlLifeline;portConstraint=eastwest;newEdgeStyle={&quot;edgeStyle&quot;:&quot;elbowEdgeStyle&quot;,&quot;elbow&quot;:&quot;vertical&quot;,&quot;curved&quot;:0,&quot;rounded&quot;:0};" vertex="1" parent="ZFc9SNvx3nLqx0V8u1el-7">
          <mxGeometry x="5" y="60" width="10" height="30" as="geometry" />
        </mxCell>
        <mxCell id="ZFc9SNvx3nLqx0V8u1el-17" value="" style="html=1;points=[];perimeter=orthogonalPerimeter;outlineConnect=0;targetShapes=umlLifeline;portConstraint=eastwest;newEdgeStyle={&quot;edgeStyle&quot;:&quot;elbowEdgeStyle&quot;,&quot;elbow&quot;:&quot;vertical&quot;,&quot;curved&quot;:0,&quot;rounded&quot;:0};" vertex="1" parent="ZFc9SNvx3nLqx0V8u1el-7">
          <mxGeometry x="5" y="110" width="10" height="20" as="geometry" />
        </mxCell>
        <mxCell id="ZFc9SNvx3nLqx0V8u1el-23" value="" style="html=1;points=[];perimeter=orthogonalPerimeter;outlineConnect=0;targetShapes=umlLifeline;portConstraint=eastwest;newEdgeStyle={&quot;edgeStyle&quot;:&quot;elbowEdgeStyle&quot;,&quot;elbow&quot;:&quot;vertical&quot;,&quot;curved&quot;:0,&quot;rounded&quot;:0};" vertex="1" parent="ZFc9SNvx3nLqx0V8u1el-7">
          <mxGeometry x="5" y="150" width="10" height="20" as="geometry" />
        </mxCell>
        <mxCell id="ZFc9SNvx3nLqx0V8u1el-28" value="" style="html=1;points=[];perimeter=orthogonalPerimeter;outlineConnect=0;targetShapes=umlLifeline;portConstraint=eastwest;newEdgeStyle={&quot;edgeStyle&quot;:&quot;elbowEdgeStyle&quot;,&quot;elbow&quot;:&quot;vertical&quot;,&quot;curved&quot;:0,&quot;rounded&quot;:0};" vertex="1" parent="ZFc9SNvx3nLqx0V8u1el-7">
          <mxGeometry x="5" y="180" width="10" height="30" as="geometry" />
        </mxCell>
        <mxCell id="ZFc9SNvx3nLqx0V8u1el-31" value="" style="html=1;points=[];perimeter=orthogonalPerimeter;outlineConnect=0;targetShapes=umlLifeline;portConstraint=eastwest;newEdgeStyle={&quot;edgeStyle&quot;:&quot;elbowEdgeStyle&quot;,&quot;elbow&quot;:&quot;vertical&quot;,&quot;curved&quot;:0,&quot;rounded&quot;:0};" vertex="1" parent="ZFc9SNvx3nLqx0V8u1el-7">
          <mxGeometry x="5" y="240" width="10" height="80" as="geometry" />
        </mxCell>
        <mxCell id="ZFc9SNvx3nLqx0V8u1el-8" value=":BookStore" style="shape=umlLifeline;perimeter=lifelinePerimeter;whiteSpace=wrap;html=1;container=1;dropTarget=0;collapsible=0;recursiveResize=0;outlineConnect=0;portConstraint=eastwest;newEdgeStyle={&quot;edgeStyle&quot;:&quot;elbowEdgeStyle&quot;,&quot;elbow&quot;:&quot;vertical&quot;,&quot;curved&quot;:0,&quot;rounded&quot;:0};fontStyle=4" vertex="1" parent="1">
          <mxGeometry x="180" y="80" width="100" height="440" as="geometry" />
        </mxCell>
        <mxCell id="ZFc9SNvx3nLqx0V8u1el-16" value="" style="html=1;points=[];perimeter=orthogonalPerimeter;outlineConnect=0;targetShapes=umlLifeline;portConstraint=eastwest;newEdgeStyle={&quot;edgeStyle&quot;:&quot;elbowEdgeStyle&quot;,&quot;elbow&quot;:&quot;vertical&quot;,&quot;curved&quot;:0,&quot;rounded&quot;:0};" vertex="1" parent="ZFc9SNvx3nLqx0V8u1el-8">
          <mxGeometry x="45" y="110" width="10" height="30" as="geometry" />
        </mxCell>
        <mxCell id="ZFc9SNvx3nLqx0V8u1el-34" value="" style="html=1;points=[];perimeter=orthogonalPerimeter;outlineConnect=0;targetShapes=umlLifeline;portConstraint=eastwest;newEdgeStyle={&quot;edgeStyle&quot;:&quot;elbowEdgeStyle&quot;,&quot;elbow&quot;:&quot;vertical&quot;,&quot;curved&quot;:0,&quot;rounded&quot;:0};" vertex="1" parent="ZFc9SNvx3nLqx0V8u1el-8">
          <mxGeometry x="45" y="300" width="10" height="80" as="geometry" />
        </mxCell>
        <mxCell id="ZFc9SNvx3nLqx0V8u1el-9" value=":CustomerLibrary" style="shape=umlLifeline;perimeter=lifelinePerimeter;whiteSpace=wrap;html=1;container=1;dropTarget=0;collapsible=0;recursiveResize=0;outlineConnect=0;portConstraint=eastwest;newEdgeStyle={&quot;edgeStyle&quot;:&quot;elbowEdgeStyle&quot;,&quot;elbow&quot;:&quot;vertical&quot;,&quot;curved&quot;:0,&quot;rounded&quot;:0};fontStyle=4" vertex="1" parent="1">
          <mxGeometry x="670" y="80" width="100" height="450" as="geometry" />
        </mxCell>
        <mxCell id="ZFc9SNvx3nLqx0V8u1el-39" value="" style="html=1;points=[];perimeter=orthogonalPerimeter;outlineConnect=0;targetShapes=umlLifeline;portConstraint=eastwest;newEdgeStyle={&quot;edgeStyle&quot;:&quot;elbowEdgeStyle&quot;,&quot;elbow&quot;:&quot;vertical&quot;,&quot;curved&quot;:0,&quot;rounded&quot;:0};" vertex="1" parent="ZFc9SNvx3nLqx0V8u1el-9">
          <mxGeometry x="45" y="270" width="10" height="80" as="geometry" />
        </mxCell>
        <mxCell id="ZFc9SNvx3nLqx0V8u1el-10" value=":Payment" style="shape=umlLifeline;perimeter=lifelinePerimeter;whiteSpace=wrap;html=1;container=1;dropTarget=0;collapsible=0;recursiveResize=0;outlineConnect=0;portConstraint=eastwest;newEdgeStyle={&quot;edgeStyle&quot;:&quot;elbowEdgeStyle&quot;,&quot;elbow&quot;:&quot;vertical&quot;,&quot;curved&quot;:0,&quot;rounded&quot;:0};fontStyle=4" vertex="1" parent="1">
          <mxGeometry x="500" y="80" width="100" height="470" as="geometry" />
        </mxCell>
        <mxCell id="ZFc9SNvx3nLqx0V8u1el-11" value=":Cart" style="shape=umlLifeline;perimeter=lifelinePerimeter;whiteSpace=wrap;html=1;container=1;dropTarget=0;collapsible=0;recursiveResize=0;outlineConnect=0;portConstraint=eastwest;newEdgeStyle={&quot;edgeStyle&quot;:&quot;elbowEdgeStyle&quot;,&quot;elbow&quot;:&quot;vertical&quot;,&quot;curved&quot;:0,&quot;rounded&quot;:0};fontStyle=4" vertex="1" parent="1">
          <mxGeometry x="325" y="80" width="100" height="440" as="geometry" />
        </mxCell>
        <mxCell id="ZFc9SNvx3nLqx0V8u1el-22" value="" style="html=1;points=[];perimeter=orthogonalPerimeter;outlineConnect=0;targetShapes=umlLifeline;portConstraint=eastwest;newEdgeStyle={&quot;edgeStyle&quot;:&quot;elbowEdgeStyle&quot;,&quot;elbow&quot;:&quot;vertical&quot;,&quot;curved&quot;:0,&quot;rounded&quot;:0};" vertex="1" parent="ZFc9SNvx3nLqx0V8u1el-11">
          <mxGeometry x="45" y="140" width="10" height="30" as="geometry" />
        </mxCell>
        <mxCell id="ZFc9SNvx3nLqx0V8u1el-25" value="" style="html=1;points=[];perimeter=orthogonalPerimeter;outlineConnect=0;targetShapes=umlLifeline;portConstraint=eastwest;newEdgeStyle={&quot;edgeStyle&quot;:&quot;elbowEdgeStyle&quot;,&quot;elbow&quot;:&quot;vertical&quot;,&quot;curved&quot;:0,&quot;rounded&quot;:0};" vertex="1" parent="ZFc9SNvx3nLqx0V8u1el-11">
          <mxGeometry x="45" y="180" width="10" height="50" as="geometry" />
        </mxCell>
        <mxCell id="ZFc9SNvx3nLqx0V8u1el-15" value="logIn" style="html=1;verticalAlign=bottom;endArrow=block;edgeStyle=elbowEdgeStyle;elbow=vertical;curved=0;rounded=0;" edge="1" parent="1" source="ZFc9SNvx3nLqx0V8u1el-12">
          <mxGeometry x="1" y="82" width="80" relative="1" as="geometry">
            <mxPoint x="119.5" y="160" as="sourcePoint" />
            <mxPoint x="229.5" y="160" as="targetPoint" />
            <mxPoint x="-79" y="-20" as="offset" />
          </mxGeometry>
        </mxCell>
        <mxCell id="ZFc9SNvx3nLqx0V8u1el-20" value="" style="html=1;verticalAlign=bottom;endArrow=block;edgeStyle=elbowEdgeStyle;elbow=vertical;curved=0;rounded=0;" edge="1" parent="1">
          <mxGeometry width="80" relative="1" as="geometry">
            <mxPoint x="119.5" y="140" as="sourcePoint" />
            <mxPoint x="225" y="140" as="targetPoint" />
          </mxGeometry>
        </mxCell>
        <mxCell id="ZFc9SNvx3nLqx0V8u1el-12" value="" style="html=1;points=[];perimeter=orthogonalPerimeter;outlineConnect=0;targetShapes=umlLifeline;portConstraint=eastwest;newEdgeStyle={&quot;edgeStyle&quot;:&quot;elbowEdgeStyle&quot;,&quot;elbow&quot;:&quot;vertical&quot;,&quot;curved&quot;:0,&quot;rounded&quot;:0};" vertex="1" parent="1">
          <mxGeometry x="225" y="140" width="10" height="30" as="geometry" />
        </mxCell>
        <mxCell id="ZFc9SNvx3nLqx0V8u1el-21" value="checkProducts" style="html=1;verticalAlign=bottom;endArrow=block;edgeStyle=elbowEdgeStyle;elbow=vertical;curved=0;rounded=0;" edge="1" parent="1" target="ZFc9SNvx3nLqx0V8u1el-8">
          <mxGeometry width="80" relative="1" as="geometry">
            <mxPoint x="120" y="190" as="sourcePoint" />
            <mxPoint x="200" y="190" as="targetPoint" />
          </mxGeometry>
        </mxCell>
        <mxCell id="ZFc9SNvx3nLqx0V8u1el-24" value="AddtoCart" style="html=1;verticalAlign=bottom;endArrow=block;edgeStyle=elbowEdgeStyle;elbow=vertical;curved=0;rounded=0;" edge="1" parent="1">
          <mxGeometry x="0.2008" y="1" width="80" relative="1" as="geometry">
            <mxPoint x="119.5" y="229.5" as="sourcePoint" />
            <mxPoint x="370" y="229.5" as="targetPoint" />
            <mxPoint y="1" as="offset" />
          </mxGeometry>
        </mxCell>
        <mxCell id="ZFc9SNvx3nLqx0V8u1el-29" value="checkOut" style="html=1;verticalAlign=bottom;endArrow=block;edgeStyle=elbowEdgeStyle;elbow=vertical;curved=0;rounded=0;" edge="1" parent="1" target="ZFc9SNvx3nLqx0V8u1el-11">
          <mxGeometry width="80" relative="1" as="geometry">
            <mxPoint x="120" y="260" as="sourcePoint" />
            <mxPoint x="200" y="260" as="targetPoint" />
          </mxGeometry>
        </mxCell>
        <mxCell id="ZFc9SNvx3nLqx0V8u1el-32" value="sendPaymentInformation" style="html=1;verticalAlign=bottom;endArrow=block;edgeStyle=elbowEdgeStyle;elbow=vertical;curved=0;rounded=0;" edge="1" parent="1" source="ZFc9SNvx3nLqx0V8u1el-30" target="ZFc9SNvx3nLqx0V8u1el-10">
          <mxGeometry x="1" y="-84" width="80" relative="1" as="geometry">
            <mxPoint x="119.5" y="300" as="sourcePoint" />
            <mxPoint x="520" y="300" as="targetPoint" />
            <mxPoint x="-79" y="56" as="offset" />
          </mxGeometry>
        </mxCell>
        <mxCell id="ZFc9SNvx3nLqx0V8u1el-35" value="" style="html=1;verticalAlign=bottom;endArrow=block;edgeStyle=elbowEdgeStyle;elbow=vertical;curved=0;rounded=0;" edge="1" parent="1">
          <mxGeometry x="-0.0986" width="80" relative="1" as="geometry">
            <mxPoint x="380" y="270" as="sourcePoint" />
            <mxPoint x="545" y="270" as="targetPoint" />
            <Array as="points">
              <mxPoint x="450" y="270" />
            </Array>
            <mxPoint as="offset" />
          </mxGeometry>
        </mxCell>
        <mxCell id="ZFc9SNvx3nLqx0V8u1el-30" value="" style="html=1;points=[];perimeter=orthogonalPerimeter;outlineConnect=0;targetShapes=umlLifeline;portConstraint=eastwest;newEdgeStyle={&quot;edgeStyle&quot;:&quot;elbowEdgeStyle&quot;,&quot;elbow&quot;:&quot;vertical&quot;,&quot;curved&quot;:0,&quot;rounded&quot;:0};" vertex="1" parent="1">
          <mxGeometry x="545" y="255" width="10" height="85" as="geometry" />
        </mxCell>
        <mxCell id="ZFc9SNvx3nLqx0V8u1el-36" value="process Payment" style="html=1;verticalAlign=bottom;endArrow=block;edgeStyle=elbowEdgeStyle;elbow=vertical;curved=0;rounded=0;" edge="1" parent="1">
          <mxGeometry width="80" relative="1" as="geometry">
            <mxPoint x="379.5" y="290" as="sourcePoint" />
            <mxPoint x="545" y="290" as="targetPoint" />
          </mxGeometry>
        </mxCell>
        <mxCell id="ZFc9SNvx3nLqx0V8u1el-37" value="paymentConfirmation" style="html=1;verticalAlign=bottom;endArrow=open;dashed=1;endSize=8;edgeStyle=elbowEdgeStyle;elbow=vertical;curved=0;rounded=0;" edge="1" parent="1" target="ZFc9SNvx3nLqx0V8u1el-7">
          <mxGeometry relative="1" as="geometry">
            <mxPoint x="545" y="330" as="sourcePoint" />
            <mxPoint x="465" y="330" as="targetPoint" />
          </mxGeometry>
        </mxCell>
        <mxCell id="ZFc9SNvx3nLqx0V8u1el-38" value="storeBook" style="html=1;verticalAlign=bottom;endArrow=block;edgeStyle=elbowEdgeStyle;elbow=vertical;curved=0;rounded=0;" edge="1" parent="1">
          <mxGeometry width="80" relative="1" as="geometry">
            <mxPoint x="235" y="390" as="sourcePoint" />
            <mxPoint x="710" y="390" as="targetPoint" />
          </mxGeometry>
        </mxCell>
      </root>
    </mxGraphModel>
  </diagram>
</mxfile>
